<?xml version="1.0" encoding="UTF-8" standalone="no"?>
<!DOCTYPE svg PUBLIC "-//W3C//DTD SVG 1.1//EN"
 "http://www.w3.org/Graphics/SVG/1.1/DTD/svg11.dtd">
<!-- Generated by graphviz version 2.43.0 (0)
 -->
<!-- Title: %3 Pages: 1 -->
<svg width="1151pt" height="265pt"
 viewBox="0.00 0.00 1151.41 265.00" xmlns="http://www.w3.org/2000/svg" xmlns:xlink="http://www.w3.org/1999/xlink">
<g id="graph0" class="graph" transform="scale(1 1) rotate(0) translate(4 261)">
<title>%3</title>
<polygon fill="white" stroke="transparent" points="-4,4 -4,-261 1147.41,-261 1147.41,4 -4,4"/>
<g id="clust1" class="cluster">
<title>cluster_ext</title>
<polygon fill="lightgrey" stroke="lightgrey" points="8,-120 8,-211 1106,-211 1106,-120 8,-120"/>
<text text-anchor="middle" x="557" y="-197.4" font-family="Times,serif" font-size="12.00">Chrome Extension</text>
</g>
<g id="clust2" class="cluster">
<title>cluster_backend</title>
<polygon fill="lightblue" stroke="lightblue" points="890.3,-8 890.3,-112 1135.41,-112 1135.41,-8 890.3,-8"/>
<text text-anchor="middle" x="1012.85" y="-98.4" font-family="Times,serif" font-size="12.00">Local Inspection Service</text>
<text text-anchor="middle" x="1012.85" y="-85.4" font-family="Times,serif" font-size="12.00">(Node.js)</text>
</g>
<!-- FS -->
<g id="node1" class="node">
<title>FS</title>
<ellipse fill="white" stroke="white" cx="140.79" cy="-155" rx="124.58" ry="18"/>
<text text-anchor="middle" x="140.79" y="-151.3" font-family="Times,serif" font-size="14.00">File Input / Drag &amp; Drop</text>
</g>
<!-- CS -->
<g id="node2" class="node">
<title>CS</title>
<ellipse fill="white" stroke="white" cx="388.84" cy="-155" rx="86.03" ry="26.74"/>
<text text-anchor="middle" x="388.84" y="-158.8" font-family="Times,serif" font-size="14.00">Content Script</text>
<text text-anchor="middle" x="388.84" y="-143.8" font-family="Times,serif" font-size="14.00">Interceptor</text>
</g>
<!-- FS&#45;&gt;CS -->
<g id="edge1" class="edge">
<title>FS&#45;&gt;CS</title>
<path fill="none" stroke="black" d="M265.9,-155C274.74,-155 283.57,-155 292.22,-155"/>
<polygon fill="black" stroke="black" points="292.27,-158.5 302.27,-155 292.27,-151.5 292.27,-158.5"/>
</g>
<!-- BG -->
<g id="node3" class="node">
<title>BG</title>
<ellipse fill="white" stroke="white" cx="601.21" cy="-155" rx="89.19" ry="26.74"/>
<text text-anchor="middle" x="601.21" y="-158.8" font-family="Times,serif" font-size="14.00">Background</text>
<text text-anchor="middle" x="601.21" y="-143.8" font-family="Times,serif" font-size="14.00">Service Worker</text>
</g>
<!-- CS&#45;&gt;BG -->
<g id="edge2" class="edge">
<title>CS&#45;&gt;BG</title>
<path fill="none" stroke="black" d="M475.41,-155C484.07,-155 492.92,-155 501.71,-155"/>
<polygon fill="black" stroke="black" points="501.99,-158.5 511.99,-155 501.99,-151.5 501.99,-158.5"/>
</g>
<!-- UI -->
<g id="node4" class="node">
<title>UI</title>
<ellipse fill="white" stroke="white" cx="1012.85" cy="-155" rx="85.29" ry="18"/>
<text text-anchor="middle" x="1012.85" y="-151.3" font-family="Times,serif" font-size="14.00">Popup / Alert UI</text>
</g>
<!-- BG&#45;&gt;UI -->
<g id="edge3" class="edge">
<title>BG&#45;&gt;UI</title>
<path fill="none" stroke="black" d="M690.34,-155C757.1,-155 848.69,-155 917.04,-155"/>
<polygon fill="black" stroke="black" points="917.38,-158.5 927.38,-155 917.38,-151.5 917.38,-158.5"/>
</g>
<!-- IS -->
<g id="node5" class="node">
<title>IS</title>
<ellipse fill="white" stroke="white" cx="1012.85" cy="-43" rx="114.6" ry="26.74"/>
<text text-anchor="middle" x="1012.85" y="-46.8" font-family="Times,serif" font-size="14.00">PDF Text Extraction</text>
<text text-anchor="middle" x="1012.85" y="-31.8" font-family="Times,serif" font-size="14.00">&amp; Secret Scan</text>
</g>
<!-- BG&#45;&gt;IS -->
<g id="edge4" class="edge">
<title>BG&#45;&gt;IS</title>
<path fill="none" stroke="black" d="M636.94,-130.33C656.92,-117.28 683.02,-102.12 708.3,-93 743.21,-80.41 829.67,-66.76 901.42,-56.9"/>
<polygon fill="black" stroke="black" points="902,-60.36 911.44,-55.54 901.06,-53.42 902,-60.36"/>
<text text-anchor="middle" x="794.3" y="-96.8" font-family="Times,serif" font-size="14.00">HTTP POST /scan (PDF)</text>
</g>
<!-- AI -->
<g id="node7" class="node">
<title>AI</title>
<polygon fill="none" stroke="black" points="1104.35,-257 921.35,-257 921.35,-219 1104.35,-219 1104.35,-257"/>
<text text-anchor="middle" x="1012.85" y="-241.8" font-family="Times,serif" font-size="14.00">AI Service</text>
<text text-anchor="middle" x="1012.85" y="-226.8" font-family="Times,serif" font-size="14.00">(ChatGPT, Claude, etc.)</text>
</g>
<!-- BG&#45;&gt;AI -->
<g id="edge8" class="edge">
<title>BG&#45;&gt;AI</title>
<path fill="none" stroke="black" stroke-dasharray="5,2" d="M674.36,-170.41C732.58,-182.75 816.64,-200.36 890.3,-215 897.03,-216.34 903.96,-217.7 910.95,-219.05"/>
<polygon fill="black" stroke="black" points="910.73,-222.58 921.22,-221.04 912.06,-215.7 910.73,-222.58"/>
<text text-anchor="middle" x="794.3" y="-214.8" font-family="Times,serif" font-size="14.00">Upload continues</text>
</g>
<!-- IS&#45;&gt;BG -->
<g id="edge7" class="edge">
<title>IS&#45;&gt;BG</title>
<path fill="none" stroke="black" d="M969.37,-68.04C944.24,-81.8 911.35,-98.05 880.3,-108 806.55,-131.64 784.65,-122.95 708.3,-136 701.73,-137.12 694.94,-138.3 688.11,-139.5"/>
<polygon fill="black" stroke="black" points="687.34,-136.08 678.1,-141.26 688.56,-142.97 687.34,-136.08"/>
<text text-anchor="middle" x="794.3" y="-139.8" font-family="Times,serif" font-size="14.00">Result JSON</text>
</g>
<!-- PS -->
<g id="node6" class="node">
<title>PS</title>
<polygon fill="none" stroke="black" points="683.21,-44 519.21,-44 519.21,-8 683.21,-8 683.21,-44"/>
<text text-anchor="middle" x="601.21" y="-22.3" font-family="Times,serif" font-size="14.00">Prompt Security API</text>
</g>
<!-- IS&#45;&gt;PS -->
<g id="edge5" class="edge">
<title>IS&#45;&gt;PS</title>
<path fill="none" stroke="black" d="M899.95,-38.36C835.15,-35.67 754.6,-32.32 693.62,-29.79"/>
<polygon fill="black" stroke="black" points="693.77,-26.3 683.63,-29.38 693.48,-33.29 693.77,-26.3"/>
<text text-anchor="middle" x="794.3" y="-41.8" font-family="Times,serif" font-size="14.00">Analyze text</text>
</g>
<!-- PS&#45;&gt;IS -->
<g id="edge6" class="edge">
<title>PS&#45;&gt;IS</title>
<path fill="none" stroke="black" d="M683.48,-14.17C691.85,-13.28 700.24,-12.53 708.3,-12 784.58,-6.99 804.37,-3.17 880.3,-12 896.03,-13.83 912.61,-16.85 928.5,-20.3"/>
<polygon fill="black" stroke="black" points="927.77,-23.72 938.29,-22.5 929.3,-16.89 927.77,-23.72"/>
<text text-anchor="middle" x="794.3" y="-15.8" font-family="Times,serif" font-size="14.00">Scan result</text>
</g>
</g>
</svg>
