<?xml version="1.0" encoding="UTF-8" standalone="no"?>
<!DOCTYPE svg PUBLIC "-//W3C//DTD SVG 1.1//EN"
 "http://www.w3.org/Graphics/SVG/1.1/DTD/svg11.dtd">
<!-- Generated by graphviz version 2.43.0 (0)
 -->
<!-- Title: Sequence Pages: 1 -->
<svg width="1134pt" height="52pt"
 viewBox="0.00 0.00 1134.00 51.50" xmlns="http://www.w3.org/2000/svg" xmlns:xlink="http://www.w3.org/1999/xlink">
<g id="graph0" class="graph" transform="scale(1 1) rotate(0) translate(4 47.5)">
<title>Sequence</title>
<polygon fill="white" stroke="transparent" points="-4,4 -4,-47.5 1130,-47.5 1130,4 -4,4"/>
<!-- User -->
<g id="node1" class="node">
<title>User</title>
<polygon fill="#e0e7ff" stroke="black" points="54,-43.5 0,-43.5 0,-7.5 54,-7.5 54,-43.5"/>
<text text-anchor="middle" x="27" y="-21.8" font-family="Helvetica,sans-Serif" font-size="14.00">User</text>
</g>
<!-- Content Script -->
<g id="node2" class="node">
<title>Content Script</title>
<polygon fill="#e0e7ff" stroke="black" points="321,-43.5 205,-43.5 205,-7.5 321,-7.5 321,-43.5"/>
<text text-anchor="middle" x="263" y="-21.8" font-family="Helvetica,sans-Serif" font-size="14.00">Content Script</text>
</g>
<!-- User&#45;&gt;Content Script -->
<g id="edge1" class="edge">
<title>User&#45;&gt;Content Script</title>
<path fill="none" stroke="black" d="M54.39,-25.5C88.13,-25.5 147.77,-25.5 194.5,-25.5"/>
<polygon fill="black" stroke="black" points="194.56,-29 204.56,-25.5 194.56,-22 194.56,-29"/>
<text text-anchor="middle" x="129.5" y="-29.3" font-family="Times,serif" font-size="14.00">selects PDF</text>
</g>
<!-- Content Script&#45;&gt;User -->
<g id="edge8" class="edge">
<title>Content Script&#45;&gt;User</title>
<path fill="none" stroke="black" d="M204.95,-9.5C198.93,-8.27 192.86,-7.23 187,-6.5 136.28,-0.18 122.05,3.84 72,-6.5 69.34,-7.05 66.65,-7.77 63.97,-8.6"/>
<polygon fill="black" stroke="black" points="62.64,-5.36 54.42,-12.05 65.02,-11.95 62.64,-5.36"/>
<text text-anchor="middle" x="129.5" y="-10.3" font-family="Times,serif" font-size="14.00">display warning</text>
</g>
<!-- Background Worker -->
<g id="node3" class="node">
<title>Background Worker</title>
<polygon fill="#e0e7ff" stroke="black" points="607,-43.5 454,-43.5 454,-7.5 607,-7.5 607,-43.5"/>
<text text-anchor="middle" x="530.5" y="-21.8" font-family="Helvetica,sans-Serif" font-size="14.00">Background Worker</text>
</g>
<!-- Content Script&#45;&gt;Background Worker -->
<g id="edge2" class="edge">
<title>Content Script&#45;&gt;Background Worker</title>
<path fill="none" stroke="black" d="M321.28,-25.5C356.98,-25.5 403.57,-25.5 443.63,-25.5"/>
<polygon fill="black" stroke="black" points="443.67,-29 453.67,-25.5 443.67,-22 443.67,-29"/>
<text text-anchor="middle" x="387.5" y="-29.3" font-family="Times,serif" font-size="14.00">send file data</text>
</g>
<!-- Background Worker&#45;&gt;Content Script -->
<g id="edge7" class="edge">
<title>Background Worker&#45;&gt;Content Script</title>
<path fill="none" stroke="black" d="M453.92,-8.81C447.88,-7.88 441.85,-7.09 436,-6.5 393.11,-2.19 381.78,-1.17 339,-6.5 336.34,-6.83 333.64,-7.23 330.93,-7.68"/>
<polygon fill="black" stroke="black" points="330.25,-4.24 321.05,-9.5 331.52,-11.13 330.25,-4.24"/>
<text text-anchor="middle" x="387.5" y="-10.3" font-family="Times,serif" font-size="14.00">scan result</text>
</g>
<!-- Inspection Service -->
<g id="node4" class="node">
<title>Inspection Service</title>
<polygon fill="#e0e7ff" stroke="black" points="869,-43.5 725,-43.5 725,-7.5 869,-7.5 869,-43.5"/>
<text text-anchor="middle" x="797" y="-21.8" font-family="Helvetica,sans-Serif" font-size="14.00">Inspection Service</text>
</g>
<!-- Background Worker&#45;&gt;Inspection Service -->
<g id="edge3" class="edge">
<title>Background Worker&#45;&gt;Inspection Service</title>
<path fill="none" stroke="black" d="M607.3,-25.5C640.77,-25.5 680.2,-25.5 714.33,-25.5"/>
<polygon fill="black" stroke="black" points="714.74,-29 724.74,-25.5 714.74,-22 714.74,-29"/>
<text text-anchor="middle" x="666" y="-29.3" font-family="Times,serif" font-size="14.00">POST /scan</text>
</g>
<!-- Inspection Service&#45;&gt;Background Worker -->
<g id="edge6" class="edge">
<title>Inspection Service&#45;&gt;Background Worker</title>
<path fill="none" stroke="black" d="M724.8,-8.93C718.81,-7.95 712.81,-7.12 707,-6.5 670.76,-2.68 661.26,-2.86 625,-6.5 622.44,-6.76 619.85,-7.06 617.23,-7.39"/>
<polygon fill="black" stroke="black" points="616.5,-3.95 607.08,-8.81 617.47,-10.89 616.5,-3.95"/>
<text text-anchor="middle" x="666" y="-10.3" font-family="Times,serif" font-size="14.00">response</text>
</g>
<!-- Prompt Security API -->
<g id="node5" class="node">
<title>Prompt Security API</title>
<polygon fill="#e0e7ff" stroke="black" points="1126,-43.5 971,-43.5 971,-7.5 1126,-7.5 1126,-43.5"/>
<text text-anchor="middle" x="1048.5" y="-21.8" font-family="Helvetica,sans-Serif" font-size="14.00">Prompt Security API</text>
</g>
<!-- Inspection Service&#45;&gt;Prompt Security API -->
<g id="edge4" class="edge">
<title>Inspection Service&#45;&gt;Prompt Security API</title>
<path fill="none" stroke="black" d="M869.16,-25.5C897.51,-25.5 930.41,-25.5 960.18,-25.5"/>
<polygon fill="black" stroke="black" points="960.57,-29 970.57,-25.5 960.57,-22 960.57,-29"/>
<text text-anchor="middle" x="920" y="-29.3" font-family="Times,serif" font-size="14.00">scan text</text>
</g>
<!-- Prompt Security API&#45;&gt;Inspection Service -->
<g id="edge5" class="edge">
<title>Prompt Security API&#45;&gt;Inspection Service</title>
<path fill="none" stroke="black" d="M970.85,-8.77C964.83,-7.86 958.83,-7.08 953,-6.5 923.81,-3.6 916.17,-3.42 887,-6.5 884.46,-6.77 881.88,-7.08 879.28,-7.43"/>
<polygon fill="black" stroke="black" points="878.57,-3.99 869.2,-8.93 879.6,-10.92 878.57,-3.99"/>
<text text-anchor="middle" x="920" y="-10.3" font-family="Times,serif" font-size="14.00">results</text>
</g>
</g>
</svg>
